<svg xmlns="http://www.w3.org/2000/svg" xmlns:xlink="http://www.w3.org/1999/xlink" version="1.1" x="0px" y="0px" viewBox="0 0 100 100" enable-background="new 0 0 100 100" xml:space="preserve"><path fill="#000000" d="M96.391,33.477c-0.291-5.974-3.061-12.24-5.828-16.32c-2.379-3.506-9.473-8.744-14.402-11.08  C72.32,4.259,61.843,1.12,58.503,1.418C43.784,2.729,25.86,14.97,23.238,17.593c-2.624,2.624-3.717,11.733-4.226,13.26  c-1.166,3.499-3.499,4.226-5.974,6.267c-2.478,2.039-5.684,5.099-6.703,6.849c-1.021,1.749-2.426,5.258-2.624,6.852  c-0.729,5.828-0.729,19.381-0.729,19.963c0,0.584,1.955,5.904,2.914,3.934c2.77-5.682,8.566-8.524,10.347-10.928  c1.323-1.782,7.831-11.777,12.532-10.054c4.372,1.603,3.79,16.466,12.385,25.208c2.683,2.728,19.094,8.743,22.286,10.784  c3.194,2.04,5.113,8.598,5.259,8.573c0.146-0.023,2.185-2.453,5.828-6.533c3.644-4.081,14.136-17.051,17.049-24.48  c1.384-3.527,1.607-11.923,1.895-16.321C93.678,47.896,96.684,39.451,96.391,33.477z M33.821,38.103  c-3.232,1.355-14.405,2.565-15.628,0c-1.694-3.552,11.193-11.01,13.06-11.804c1.365-0.58,4.352-1.387,5.628-0.273  C37.758,26.791,38.903,35.971,33.821,38.103z M69.871,52.276c-5.256,0.884-5.684-2.769-8.891-5.247  c-3.204-2.478-5.974-4.372-5.974-7.579c0-3.206,0.983-3.55,1.748-4.226c1.944-1.718,10.365-2.161,13.989,3.643  C74.807,45.372,73.426,51.68,69.871,52.276z"/></svg>