<svg xmlns="http://www.w3.org/2000/svg" xmlns:xlink="http://www.w3.org/1999/xlink" version="1.1" x="0px" y="0px" viewBox="0 0 100 100" enable-background="new 0 0 100 100" xml:space="preserve"><g><g><g><path d="M75.556,15.5c0.141,0.422,0.281,1.266-0.281,2.953c-0.141,0.281-0.281,0.703-0.422,0.984     c-0.844,1.688-1.969,3.797-1.969,3.797c0-0.562-0.141-0.984-0.281-1.547c-0.984-2.953-5.062-4.359-9.141-3.094     c-4.078,1.406-6.469,4.922-5.484,8.016c0.984,2.953,5.062,4.359,9.141,3.094c2.25-0.844,4.078-2.25,4.922-3.938     c0,0,2.109-3.656,3.516-7.031c0.281-0.703,0.562-1.266,0.562-1.688l0.141-0.141c0,0,1.266,1.828,2.109,4.078     c0.422,1.406,0.703,2.953,0.703,4.5v0.141c-0.141,1.688-0.281,2.812-0.281,3.797c-0.281,1.688-0.562,2.672-1.266,4.078     c-1.266,2.391-4.359,9.281-14.203,9.281c0,0-3.516,0.422-7.312-0.984c-2.672-0.984-5.484-2.953-7.453-6.469     c-0.141-0.141-0.281-0.281-0.281-0.422c0,0-0.141-0.281-0.281-0.562c-0.422-1.125-1.547-4.078-1.688-7.734     c0-0.562,0-1.125,0-1.688c0-0.281,0.141-0.562,0.141-0.844c0-0.141,0-0.281,0-0.562c0-0.141,0-0.281,0-0.422     C47.571,10.578,59.103,3.688,64.024,2.422c5.062-1.266,13.781-1.125,20.672,3.938c6.75,5.062,8.156,14.906,7.875,23.203     c-0.422,8.297-11.812,15.047-11.812,15.047c3.094,2.531,1.547,8.297,1.547,8.297c-0.844,4.641-8.719,13.781-8.719,13.781     l-5.625,7.594c0,0-1.266,5.062-2.109,8.719c-0.703,3.656-2.531,4.219-2.531,4.219s-4.359,2.531-6.047,3.234     c-1.547,0.703-2.531,0.562-2.531,0.562s-2.953-2.812-3.938-5.203s-0.141-4.781-0.141-4.781l3.234-5.344v-1.406     c-12.094-9.703-8.578-26.719-8.578-26.719c-3.938,6.047-2.109,15.891-1.547,17.297c0.703,1.406,1.266,4.922,1.266,4.922     c1.828,21.656-9.141,29.812-9.141,29.812c3.797-16.172-8.016-26.578-13.359-32.766c-5.484-6.188-4.922-9.844-4.922-9.844     l-0.703-13.922c0,0,0.422-4.922-0.422-6.469s-5.344-2.25-5.344-2.25l0.703-0.422C17.618,29.141,21.134,29,21.134,29     s1.406-0.281,4.5-0.281s8.438-1.828,10.969-2.672s1.547-3.516,1.547-3.516l6.891,1.406c-0.281,2.531-0.422,10.406,5.906,16.453     c0,0,11.391,8.016,22.641,0c0,0,5.766-4.219,6.047-13.781c0,0,0.141-6.469-3.375-10.266L75.556,15.5z M67.118,63.734     c0.281,1.125,2.531,2.391,4.781,1.406c0,0-0.984-2.109,0.844-5.062C74.571,57.266,66.837,62.75,67.118,63.734z"/></g></g></g></svg>